<svg xmlns="http://www.w3.org/2000/svg" xmlns:oryx="http://oryx-editor.org" id="_285B7BF8-77CA-48D9-A771-3D2A40488D02" width="534" height="261" xmlns:xlink="http://www.w3.org/1999/xlink" xmlns:svg="http://www.w3.org/2000/svg"><defs><marker id="_38FBA593-7D9B-4BCF-A2A3-95387D2824B6start" refX="1" refY="5" markerUnits="userSpaceOnUse" markerWidth="17" markerHeight="11" orient="auto" fill="#000000" stroke="#000000"> 	  		<path id="_38FBA593-7D9B-4BCF-A2A3-95387D2824B6conditional" d="M 0 5 L 8 0 L 16 5 L 8 10 L 0 5" fill="white" stroke="#000000" stroke-width="1" display="none"/> 			<path id="_38FBA593-7D9B-4BCF-A2A3-95387D2824B6default" d="M 5 0 L 11 10" fill="white" stroke="#000000" stroke-width="1" display="none"/> 	  	</marker><marker id="_38FBA593-7D9B-4BCF-A2A3-95387D2824B6end" refX="15" refY="6" markerUnits="userSpaceOnUse" markerWidth="15" markerHeight="12" orient="auto" fill="#000000" stroke="#000000"> 	  		<path id="_38FBA593-7D9B-4BCF-A2A3-95387D2824B6frame2" d="M 0 1 L 15 6 L 0 11z" fill="#000000" stroke="#000000" stroke-linejoin="round" stroke-width="2"/> 	  	</marker><marker id="_B410BB25-A5B3-437A-BCC0-CE196F7746ABstart" refX="1" refY="5" markerUnits="userSpaceOnUse" markerWidth="17" markerHeight="11" orient="auto" fill="#000000" stroke="#000000"> 	  		<path id="_B410BB25-A5B3-437A-BCC0-CE196F7746ABconditional" d="M 0 5 L 8 0 L 16 5 L 8 10 L 0 5" fill="white" stroke="#000000" stroke-width="1" display="none"/> 			<path id="_B410BB25-A5B3-437A-BCC0-CE196F7746ABdefault" d="M 5 0 L 11 10" fill="white" stroke="#000000" stroke-width="1" display="none"/> 	  	</marker><marker id="_B410BB25-A5B3-437A-BCC0-CE196F7746ABend" refX="15" refY="6" markerUnits="userSpaceOnUse" markerWidth="15" markerHeight="12" orient="auto" fill="#000000" stroke="#000000"> 	  		<path id="_B410BB25-A5B3-437A-BCC0-CE196F7746ABframe2" d="M 0 1 L 15 6 L 0 11z" fill="#000000" stroke="#000000" stroke-linejoin="round" stroke-width="2"/> 	  	</marker><marker id="_F010A071-CA94-446B-8332-3EE13F56F17Estart" refX="1" refY="5" markerUnits="userSpaceOnUse" markerWidth="17" markerHeight="11" orient="auto" fill="#000000" stroke="#000000"> 	  		<path id="_F010A071-CA94-446B-8332-3EE13F56F17Econditional" d="M 0 5 L 8 0 L 16 5 L 8 10 L 0 5" fill="white" stroke="#000000" stroke-width="1" display="none"/> 			<path id="_F010A071-CA94-446B-8332-3EE13F56F17Edefault" d="M 5 0 L 11 10" fill="white" stroke="#000000" stroke-width="1" display="none"/> 	  	</marker><marker id="_F010A071-CA94-446B-8332-3EE13F56F17Eend" refX="15" refY="6" markerUnits="userSpaceOnUse" markerWidth="15" markerHeight="12" orient="auto" fill="#000000" stroke="#000000"> 	  		<path id="_F010A071-CA94-446B-8332-3EE13F56F17Eframe2" d="M 0 1 L 15 6 L 0 11z" fill="#000000" stroke="#000000" stroke-linejoin="round" stroke-width="2"/> 	  	</marker></defs><g stroke="none" font-family="Verdana, sans-serif" font-size-adjust="none" font-style="normal" font-variant="normal" font-weight="normal" line-heigth="normal" font-size="12"><g class="stencils" transform="translate(16, 16)"><g class="me"/><g class="children"><g id="_FF4C0ECF-F044-4D97-85FE-B185D3BE8995" bpmn2nodeid="processStartEvent"><g class="stencils" transform="translate(120, 165)"><g class="me"><g pointer-events="fill" id="_FF4C0ECF-F044-4D97-85FE-B185D3BE8995">        <defs id="_FF4C0ECF-F044-4D97-85FE-B185D3BE8995__FF4C0ECF-F044-4D97-85FE-B185D3BE8995_5"> 		<radialGradient id="_FF4C0ECF-F044-4D97-85FE-B185D3BE8995background" cx="10%" cy="10%" r="100%" fx="10%" fy="10%"> 			<stop offset="0%" stop-color="#ffffff" stop-opacity="1" id="_FF4C0ECF-F044-4D97-85FE-B185D3BE8995__FF4C0ECF-F044-4D97-85FE-B185D3BE8995_6"/> 			<stop id="_FF4C0ECF-F044-4D97-85FE-B185D3BE8995fill_el" offset="100%" stop-color="#9acd32" stop-opacity="1"/> 		</radialGradient> 	</defs> 	     <circle id="_FF4C0ECF-F044-4D97-85FE-B185D3BE8995bg_frame" cx="15" cy="15" r="15" stroke="#000000" fill="url(#_FF4C0ECF-F044-4D97-85FE-B185D3BE8995background) white" stroke-width="1" style="stroke-dasharray: 5.5, 3"/>      <circle id="_FF4C0ECF-F044-4D97-85FE-B185D3BE8995frame" cx="15" cy="15" r="15" stroke="#000000" fill="none" stroke-width="1" display="inherit"/>  	<text font-size="11" id="_FF4C0ECF-F044-4D97-85FE-B185D3BE8995text_name" x="15" y="32" oryx:align="top center" stroke="black" stroke-width="0pt" letter-spacing="-0.01px" fill="#000000" text-anchor="middle" transform="rotate(0 15 32)" visibility="inherit" oryx:fontSize="11"/>   </g></g><g class="children" style="overflow:hidden"/><g class="edge"/></g><g class="controls"><g class="dockers"/><g class="magnets" transform="translate(120, 165)"><g pointer-events="all" display="none" transform="translate(7, 7)"><circle cx="8" cy="8" r="4" stroke="none" fill="red" fill-opacity="0.3"/></g></g></g></g><g id="_CF0FE796-5437-463E-93B9-2E733BC2CF45" bpmn2nodeid="_2DCF40BE-54C1-4740-86E5-DB90542E9C89"><g class="stencils" transform="translate(195, 140)"><g class="me"><g pointer-events="fill" oryx:minimumSize="50 40" id="_CF0FE796-5437-463E-93B9-2E733BC2CF45">   	<defs id="_CF0FE796-5437-463E-93B9-2E733BC2CF45__CF0FE796-5437-463E-93B9-2E733BC2CF45_17"> 		<radialGradient id="_CF0FE796-5437-463E-93B9-2E733BC2CF45background" cx="10%" cy="10%" r="100%" fx="10%" fy="10%"> 			<stop offset="0%" stop-color="#ffffff" stop-opacity="1" id="_CF0FE796-5437-463E-93B9-2E733BC2CF45__CF0FE796-5437-463E-93B9-2E733BC2CF45_18"/> 			<stop id="_CF0FE796-5437-463E-93B9-2E733BC2CF45fill_el" offset="100%" stop-color="#fafad2" stop-opacity="1"/> 		</radialGradient> 		<radialGradient id="_CF0FE796-5437-463E-93B9-2E733BC2CF45borderbackground" cx="10%" cy="10%" r="100%" fx="10%" fy="10%"> 			<stop offset="0%" stop-color="#ffffff" stop-opacity="1" id="_CF0FE796-5437-463E-93B9-2E733BC2CF45__CF0FE796-5437-463E-93B9-2E733BC2CF45_19"/> 			<stop id="_CF0FE796-5437-463E-93B9-2E733BC2CF45fill_border" offset="100%" stop-color="#000000" stop-opacity="1" stroke="#000000"/> 		</radialGradient> 	</defs> 	 	<rect id="_CF0FE796-5437-463E-93B9-2E733BC2CF45text_frame" oryx:anchors="bottom top right left" x="1" y="1" width="94" height="79" rx="10" ry="10" stroke="none" stroke-width="0" fill="none"/> 	<rect id="_CF0FE796-5437-463E-93B9-2E733BC2CF45bg_frame" oryx:resize="vertical horizontal" x="0" y="0" width="100" height="80" rx="10" ry="10" stroke="#000000" stroke-width="1" fill="url(#_CF0FE796-5437-463E-93B9-2E733BC2CF45background) #ffffcc"/> 		<text font-size="12" id="_CF0FE796-5437-463E-93B9-2E733BC2CF45text_name" x="50" y="40" oryx:align="middle center" oryx:fittoelem="text_frame" stroke="black" text-anchor="middle" stroke-width="0pt" letter-spacing="-0.01px" fill="#000000" transform="rotate(0 50 40)" visibility="inherit" oryx:fontSize="12"><tspan x="50" y="40" dy="5" id="ext-gen1186">Task_1</tspan></text>     <g id="_CF0FE796-5437-463E-93B9-2E733BC2CF45manualTask" transform="scale(0.7,0.7) translate(8,8)" display="none">     	<path oryx:anchors="top left" id="_CF0FE796-5437-463E-93B9-2E733BC2CF45frame" style="opacity:1;fill:none;fill-opacity:1;stroke-width:1" d="M0.5,3.751l4.083-3.25c0,0,11.166,0.083,12.083,0.083s-2.417,2.917-1.5,2.917     s11.667,0,12.584,0c1.166,1.708-0.168,3.167-0.834,3.667s0.875,1.917-1,4.417c-0.75,0.25,0.75,1.875-1.333,3.333     c-1.167,0.583,0.583,1.542-1.25,2.833c-1.167,0-20.833,0.083-20.833,0.083l-2-1.333V3.751z" stroke="#000000"/> 		<path id="_CF0FE796-5437-463E-93B9-2E733BC2CF45frame2" oryx:anchors="top left" style="opacity:1;fill:none;stroke-width:2" d="M 13.5 7 L 27 7" stroke="#000000"/> 		<path id="_CF0FE796-5437-463E-93B9-2E733BC2CF45frame3" oryx:anchors="top left" style="opacity:1;fill:none;stroke-width:2" d="M 13.5 11 L 26 11" stroke="#000000"/> 		<path id="_CF0FE796-5437-463E-93B9-2E733BC2CF45frame4" oryx:anchors="top left" style="opacity:1;fill:none;stroke-width:1.5" d="M 14 14.5 L 25 14.5" stroke="#000000"/> 		<path id="_CF0FE796-5437-463E-93B9-2E733BC2CF45frame5" oryx:anchors="top left" style="opacity:1;fill:none;stroke-width:1.5" d="M 8.2 3.1 L 15 3.1" stroke="#000000"/> 	</g> 	 	<g id="_CF0FE796-5437-463E-93B9-2E733BC2CF45businessRuleTask" transform="scale(0.7,0.7) translate(8,8)" display="none"> 		<rect id="_CF0FE796-5437-463E-93B9-2E733BC2CF45frame6" oryx:anchors="top left" x="0" y="0" width="22" height="4" style="opacity:1;fill:#B3B1B3;fill-opacity:1;" stroke="#000000"/> 		<rect id="_CF0FE796-5437-463E-93B9-2E733BC2CF45frame7" oryx:anchors="top left" x="0" y="4" style="opacity:1;fill:none;" width="22" height="12" stroke="#000000"/> 		<path id="_CF0FE796-5437-463E-93B9-2E733BC2CF45frame8" oryx:anchors="top left" style="opacity:1;fill:none;" d="M 0 10 L 22 10" stroke="#000000"/> 		<path id="_CF0FE796-5437-463E-93B9-2E733BC2CF45frame9" oryx:anchors="top left" style="opacity:1; fill:none;" d="M 7 4 L 7 16" stroke="#000000"/> 	</g> 	 	<g id="_CF0FE796-5437-463E-93B9-2E733BC2CF45scriptTask" transform="scale(0.7,0.7) translate(8,8)" display="none"> 		<path oryx:anchors="top left" id="_CF0FE796-5437-463E-93B9-2E733BC2CF45frame10" style="opacity:1;fill:none;" stroke="#000000" d="M6.402,0.5h14.5c0,0-5.833,2.833-5.833,5.583s4.417,6,4.417,9.167    s-4.167,5.083-4.167,5.083H0.235c0,0,5-2.667,5-5s-4.583-6.75-4.583-9.25S6.402,0.5,6.402,0.5z"/> 		<path oryx:anchors="top left" id="_CF0FE796-5437-463E-93B9-2E733BC2CF45frame11" style="opacity:1;fill:none;stroke-width:1.5" d="M 3.5 4.5 L 13.5 4.5" stroke="#000000"/> 		<path oryx:anchors="top left" id="_CF0FE796-5437-463E-93B9-2E733BC2CF45frame12" style="opacity:1;fill:none;stroke-width:1.5" d="M 3.8 8.5 L 13.8 8.5" stroke="#000000"/> 		<path oryx:anchors="top left" id="_CF0FE796-5437-463E-93B9-2E733BC2CF45frame13" style="opacity:1;fill:none;stroke-width:1.5" d="M 6.3 12.5 L 16.3 12.5" stroke="#000000"/> 		<path oryx:anchors="top left" id="_CF0FE796-5437-463E-93B9-2E733BC2CF45frame14" style="opacity:1;fill:none;stroke-width:1.5" d="M 6.5 16.5 L 16.5 16.5" stroke="#000000"/> 	</g> 	 	<g id="_CF0FE796-5437-463E-93B9-2E733BC2CF45userTask" transform="scale(0.7,0.7) translate(8,8)" display="inherit"> 		<path id="_CF0FE796-5437-463E-93B9-2E733BC2CF45frame15" oryx:anchors="top left" style="opacity:1;fill:#F4F6F7" stroke="#000000" d="M0.585,24.167h24.083v-7.833c0,0-2.333-3.917-7.083-5.167h-9.25    c-4.417,1.333-7.833,5.75-7.833,5.75L0.585,24.167z"/> 		<path id="_CF0FE796-5437-463E-93B9-2E733BC2CF45frame16" oryx:anchors="top left" style="opacity:1;fill:none" d="M 6 20 L 6 24" stroke="#000000"/> 		<path id="_CF0FE796-5437-463E-93B9-2E733BC2CF45frame17" oryx:anchors="top left" style="opacity:1;fill:none" d="M 20 20 L 20 24" stroke="#000000"/> 		<circle id="_CF0FE796-5437-463E-93B9-2E733BC2CF45frame18" oryx:anchors="top left" fill="black" cx="13.002" cy="5.916" r="5.417" stroke="#000000"/> 		<path id="_CF0FE796-5437-463E-93B9-2E733BC2CF45frame19" oryx:anchors="top left" style="opacity:1;fill:#F0EFF0;" stroke="#000000" d="M8.043,7.083c0,0,2.814-2.426,5.376-1.807s4.624-0.693,4.624-0.693    c0.25,1.688,0.042,3.75-1.458,5.584c0,0,1.083,0.75,1.083,1.5s0.125,1.875-1,3s-5.5,1.25-6.75,0S8.668,12.834,8.668,12    s0.583-1.25,1.25-1.917C8.835,9.5,7.419,7.708,8.043,7.083z"/> 	</g> 	 	<g id="_CF0FE796-5437-463E-93B9-2E733BC2CF45serviceTask" transform="scale(0.7,0.7) translate(8,8)" display="none"> 		<polygon oryx:anchors="top left" id="_CF0FE796-5437-463E-93B9-2E733BC2CF45frame20" style="opacity:1;fill:#ffffff" stroke="#000000" points="15.392,5.064 17.954,2.502 20.347,4.895 17.786,7.455     18.729,9.732 22.353,9.732 22.353,13.115 18.731,13.115 17.788,15.392 20.351,17.955 17.958,20.347 15.397,17.786 13.12,18.729     13.12,22.353 9.737,22.353 9.737,18.731 7.46,17.788 4.897,20.35 2.506,17.958 5.066,15.397 4.124,13.12 0.5,13.12 0.5,9.737     4.121,9.737 5.065,7.461 2.503,4.898 4.895,2.506 7.455,5.066 9.732,4.125 9.732,0.5 13.116,0.5 13.116,4.121 "/> 		<circle oryx:anchors="top left" id="_CF0FE796-5437-463E-93B9-2E733BC2CF45frame21" style="opacity:1;fill:none" stroke="#000000" cx="11.427" cy="11.426" r="3.714"/> 		<polygon oryx:anchors="top left" id="_CF0FE796-5437-463E-93B9-2E733BC2CF45frame22" style="opacity:1;fill:#ffffff" stroke="#000000" points="21.392,11.064 23.954,8.502 26.347,10.895 23.786,13.455     24.729,15.732 28.353,15.732 28.353,19.115 24.731,19.115 23.788,21.392 26.351,23.955 23.958,26.347 21.397,23.786 19.12,24.729     19.12,28.353 15.737,28.353 15.737,24.731 13.46,23.788 10.897,26.35 8.506,23.958 11.066,21.397 10.124,19.12 6.5,19.12     6.5,15.737 10.121,15.737 11.065,13.461 8.503,10.898 10.895,8.506 13.455,11.066 15.732,10.125 15.732,6.5 19.116,6.5     19.116,10.121 "/> 		<circle oryx:anchors="top left" id="_CF0FE796-5437-463E-93B9-2E733BC2CF45frame23" style="opacity:1;fill:none;" stroke="#000000" cx="17.427" cy="17.426" r="3.714"/> 	</g> 	 	<g id="_CF0FE796-5437-463E-93B9-2E733BC2CF45sendTask" display="none"> 		<path id="_CF0FE796-5437-463E-93B9-2E733BC2CF45stframe24" oryx:anchors="left top" stroke="#FFFFFF" fill="black" stroke-width="1" d="M8,11 L8,21 L24,21 L24,11 L16,17z"/> 		<path id="_CF0FE796-5437-463E-93B9-2E733BC2CF45stframe25" oryx:anchors="left top" stroke="#FFFFFF" fill="black" stroke-width="1" d="M7,10 L16,17 L25 10z"/> 	</g> 	 	<g id="_CF0FE796-5437-463E-93B9-2E733BC2CF45receiveTask" display="none"> 		<path id="_CF0FE796-5437-463E-93B9-2E733BC2CF45frame26" oryx:anchors="left top" stroke="#000000" fill="none" stroke-width="1" d="M8,11 L8,21 L24,21 L24,11z M8,11 L16,17 L24,11"/> 	</g> 	 	<g id="_CF0FE796-5437-463E-93B9-2E733BC2CF45none" display="inherit"/>  	<g id="_CF0FE796-5437-463E-93B9-2E733BC2CF45sequential" display="none">         <path oryx:anchors="bottom" fill="none" stroke="#000000" stroke-width="2" d="M46,76h10M46,72h10 M46,68h10" id="_CF0FE796-5437-463E-93B9-2E733BC2CF45__CF0FE796-5437-463E-93B9-2E733BC2CF45_20"/>     </g>   </g></g><g class="children" style="overflow:hidden"/><g class="edge"/></g><g class="controls"><g class="dockers"/><g class="magnets" transform="translate(195, 140)"><g pointer-events="all" display="none" transform="translate(-7, 12)"><circle cx="8" cy="8" r="4" stroke="none" fill="red" fill-opacity="0.3"/></g><g pointer-events="all" display="none" transform="translate(-7, 32)"><circle cx="8" cy="8" r="4" stroke="none" fill="red" fill-opacity="0.3"/></g><g pointer-events="all" display="none" transform="translate(-7, 52)"><circle cx="8" cy="8" r="4" stroke="none" fill="red" fill-opacity="0.3"/></g><g pointer-events="all" display="none" transform="translate(17, 71)"><circle cx="8" cy="8" r="4" stroke="none" fill="red" fill-opacity="0.3"/></g><g pointer-events="all" display="none" transform="translate(42, 71)"><circle cx="8" cy="8" r="4" stroke="none" fill="red" fill-opacity="0.3"/></g><g pointer-events="all" display="none" transform="translate(67, 71)"><circle cx="8" cy="8" r="4" stroke="none" fill="red" fill-opacity="0.3"/></g><g pointer-events="all" display="none" transform="translate(91, 12)"><circle cx="8" cy="8" r="4" stroke="none" fill="red" fill-opacity="0.3"/></g><g pointer-events="all" display="none" transform="translate(91, 32)"><circle cx="8" cy="8" r="4" stroke="none" fill="red" fill-opacity="0.3"/></g><g pointer-events="all" display="none" transform="translate(91, 52)"><circle cx="8" cy="8" r="4" stroke="none" fill="red" fill-opacity="0.3"/></g><g pointer-events="all" display="none" transform="translate(17, -7)"><circle cx="8" cy="8" r="4" stroke="none" fill="red" fill-opacity="0.3"/></g><g pointer-events="all" display="none" transform="translate(42, -7)"><circle cx="8" cy="8" r="4" stroke="none" fill="red" fill-opacity="0.3"/></g><g pointer-events="all" display="none" transform="translate(67, -7)"><circle cx="8" cy="8" r="4" stroke="none" fill="red" fill-opacity="0.3"/></g><g pointer-events="all" display="none" transform="translate(42, 32)"><circle cx="8" cy="8" r="4" stroke="none" fill="red" fill-opacity="0.3"/></g></g></g></g><g id="_972CEA5D-7F82-4979-952A-383CFB9C5E8F" bpmn2nodeid="_1287D081-0751-43E5-BCE3-1B682AF7B1B2"><g class="stencils" transform="translate(465, 166)"><g class="me"><g pointer-events="fill" id="_972CEA5D-7F82-4979-952A-383CFB9C5E8F">      <defs id="_972CEA5D-7F82-4979-952A-383CFB9C5E8F__972CEA5D-7F82-4979-952A-383CFB9C5E8F_5"> 		<radialGradient id="_972CEA5D-7F82-4979-952A-383CFB9C5E8Fbackground" cx="10%" cy="10%" r="100%" fx="10%" fy="10%"> 			<stop offset="0%" stop-color="#ffffff" stop-opacity="1" id="_972CEA5D-7F82-4979-952A-383CFB9C5E8F__972CEA5D-7F82-4979-952A-383CFB9C5E8F_6"/> 			<stop id="_972CEA5D-7F82-4979-952A-383CFB9C5E8Ffill_el" offset="100%" stop-color="#ff6347" stop-opacity="1"/> 		</radialGradient> 	</defs> 	     <circle id="_972CEA5D-7F82-4979-952A-383CFB9C5E8Fbg_frame" cx="14" cy="14" r="14" stroke="#000000" fill="url(#_972CEA5D-7F82-4979-952A-383CFB9C5E8Fbackground) white" stroke-width="3"/> 	<text font-size="11" id="_972CEA5D-7F82-4979-952A-383CFB9C5E8Ftext_name" x="14" y="30" oryx:align="top center" stroke="black" stroke-width="0pt" letter-spacing="-0.01px" fill="#000000" text-anchor="middle" transform="rotate(0 14 30)" visibility="inherit" oryx:fontSize="11"/>   </g></g><g class="children" style="overflow:hidden"/><g class="edge"/></g><g class="controls"><g class="dockers"/><g class="magnets" transform="translate(465, 166)"><g pointer-events="all" display="none" transform="translate(6, 6)"><circle cx="8" cy="8" r="4" stroke="none" fill="red" fill-opacity="0.3"/></g></g></g></g><g id="_D842C872-7491-4A6A-8F55-26630B9E72F1" bpmn2nodeid="_94002119-68A7-408A-B891-CEA59BA9BADA"><g class="stencils" transform="translate(360, 165)"><g class="me"><g pointer-events="fill" id="_D842C872-7491-4A6A-8F55-26630B9E72F1">        <defs id="_D842C872-7491-4A6A-8F55-26630B9E72F1__D842C872-7491-4A6A-8F55-26630B9E72F1_6"> 		<radialGradient id="_D842C872-7491-4A6A-8F55-26630B9E72F1background" cx="10%" cy="10%" r="100%" fx="10%" fy="10%"> 			<stop offset="0%" stop-color="#ffffff" stop-opacity="1" id="_D842C872-7491-4A6A-8F55-26630B9E72F1__D842C872-7491-4A6A-8F55-26630B9E72F1_7"/> 			<stop id="_D842C872-7491-4A6A-8F55-26630B9E72F1fill_el" offset="100%" stop-color="#8cabff" stop-opacity="1"/> 		</radialGradient> 		<radialGradient id="_D842C872-7491-4A6A-8F55-26630B9E72F1borderbackground" cx="10%" cy="10%" r="100%" fx="10%" fy="10%"> 			<stop offset="0%" stop-color="#ffffff" stop-opacity="1" id="_D842C872-7491-4A6A-8F55-26630B9E72F1__D842C872-7491-4A6A-8F55-26630B9E72F1_8"/> 			<stop id="_D842C872-7491-4A6A-8F55-26630B9E72F1fill_border" offset="100%" stop-color="#008cec" stop-opacity="1" stroke="#008cec"/> 		</radialGradient> 	</defs> 	     <circle id="_D842C872-7491-4A6A-8F55-26630B9E72F1bg_frame" cx="15" cy="15" r="15" stroke="#008cec" fill="url(#_D842C872-7491-4A6A-8F55-26630B9E72F1background) white" stroke-width="1"/>     <circle id="_D842C872-7491-4A6A-8F55-26630B9E72F1frame" cx="15" cy="15" r="12" stroke="#008cec" fill="none" stroke-width="1"/>     <path id="_D842C872-7491-4A6A-8F55-26630B9E72F1frame2" stroke="#008cec" fill="url(#_D842C872-7491-4A6A-8F55-26630B9E72F1borderbackground)" d=" M7.7124971 20.247342  L22.333334 20.247342  L15.022915000000001 7.575951200000001  L7.7124971 20.247342  z" style="stroke-width:1.4;stroke-miterlimit:4;stroke-dasharray:none"/> 	<text font-size="11" id="_D842C872-7491-4A6A-8F55-26630B9E72F1text_name" x="15" y="32" oryx:align="top center" stroke="black" stroke-width="0pt" letter-spacing="-0.01px" fill="#000000" text-anchor="middle" transform="rotate(0 15 32)" visibility="inherit" oryx:fontSize="11"/>   </g></g><g class="children" style="overflow:hidden"/><g class="edge"/></g><g class="controls"><g class="dockers"/><g class="magnets" transform="translate(360, 165)"><g pointer-events="all" display="none" transform="translate(7, 7)"><circle cx="8" cy="8" r="4" stroke="none" fill="red" fill-opacity="0.3"/></g></g></g></g></g><g class="edge"><g id="_38FBA593-7D9B-4BCF-A2A3-95387D2824B6" bpmn2nodeid="_9AC95934-DAD6-4980-ABD4-4BC0DB89C742"><g class="stencils"><g class="me"><g pointer-events="painted" bpmn2nodeid="_E1B150D8-DB4C-484D-8D00-5915E51BC302"><path id="_38FBA593-7D9B-4BCF-A2A3-95387D2824B6_1" d="M150.609375 180L194.15625 180 " stroke="#000000" fill="none" stroke-width="2" stroke-linecap="round" stroke-linejoin="round" marker-start="url(#_38FBA593-7D9B-4BCF-A2A3-95387D2824B6start)" marker-end="url(#_38FBA593-7D9B-4BCF-A2A3-95387D2824B6end)"/></g><text id="_38FBA593-7D9B-4BCF-A2A3-95387D2824B6text_name" font-size="12" x="164.609375" y="166" oryx:edgePosition="startTop" stroke-width="0pt" letter-spacing="-0.01px" fill="#000000" text-anchor="start" transform="rotate(360 150.609375 180)" visibility="inherit" oryx:fontSize="12"/></g><g class="children" style="overflow:hidden"/><g class="edge"/></g><g class="controls"><g class="dockers"/><g class="magnets"/></g></g><g id="_B410BB25-A5B3-437A-BCC0-CE196F7746AB" bpmn2nodeid="_7F388429-1F88-4FB7-82A2-520DFEDC2644"><g class="stencils"><g class="me"><g pointer-events="painted" bpmn2nodeid="_9967EFF7-272F-48F6-B3FA-04782D7C3E54"><path id="_B410BB25-A5B3-437A-BCC0-CE196F7746AB_1" d="M295.765625 180L359.78125 180 " stroke="#000000" fill="none" stroke-width="2" stroke-linecap="round" stroke-linejoin="round" marker-start="url(#_B410BB25-A5B3-437A-BCC0-CE196F7746ABstart)" marker-end="url(#_B410BB25-A5B3-437A-BCC0-CE196F7746ABend)"/></g><text id="_B410BB25-A5B3-437A-BCC0-CE196F7746ABtext_name" font-size="12" x="309.765625" y="166" oryx:edgePosition="startTop" stroke-width="0pt" letter-spacing="-0.01px" fill="#000000" text-anchor="start" transform="rotate(360 295.765625 180)" visibility="inherit" oryx:fontSize="12"/></g><g class="children" style="overflow:hidden"/><g class="edge"/></g><g class="controls"><g class="dockers"/><g class="magnets"/></g></g><g id="_F010A071-CA94-446B-8332-3EE13F56F17E" bpmn2nodeid="_16793660-192E-4F8B-9EED-062F117A0718"><g class="stencils"><g class="me"><g pointer-events="painted" bpmn2nodeid="_16793660-192E-4F8B-9EED-062F117A0718"><path id="_F010A071-CA94-446B-8332-3EE13F56F17E_1" d="M390.625 180L465 180 " stroke="#000000" fill="none" stroke-width="2" stroke-linecap="round" stroke-linejoin="round" marker-start="url(#_F010A071-CA94-446B-8332-3EE13F56F17Estart)" marker-end="url(#_F010A071-CA94-446B-8332-3EE13F56F17Eend)"/></g><text id="_F010A071-CA94-446B-8332-3EE13F56F17Etext_name" font-size="12" x="404.625" y="166" oryx:edgePosition="startTop" stroke-width="0pt" letter-spacing="-0.01px" fill="#000000" text-anchor="start" transform="rotate(360 390.625 180)" visibility="inherit" oryx:fontSize="12"/></g><g class="children" style="overflow:hidden"/><g class="edge"/></g><g class="controls"><g class="dockers"/><g class="magnets"/></g></g></g><text id="_870BF87B-4AE9-446C-857D-83CAEAF2CABB" style="stroke-width:1;fill:rgb(177,194,214);font-family:arial;font-weight:bold" font-size="12" onclick="ORYX.Plugins.CanvasTitle.openTextualAnalysis()" onmouseover="ORYX.Plugins.CanvasTitle.addToolTip('_870BF87B-4AE9-446C-857D-83CAEAF2CABB')" transform="translate(10, 20)">monitoringprocess v.1.0 (src.monitoringprocess)</text></g></g></svg>